<svg version="1.1" id="Layer_1" xmlns="http://www.w3.org/2000/svg" xmlns:xlink="http://www.w3.org/1999/xlink" x="0px" y="0px" viewBox="0 0 512 512" style="enable-background:new 0 0 512 512;" xml:space="preserve">
<style>
	path.st0 {
		fill: #0bd;
	}
	@media (prefers-color-scheme: dark) {
		path.st0 {
			fill: #faa;
		}
	}
</style>
<g>
	<path class="st0" d="M327.776,420.287c-8.032-2.739-15.364-10.351-20.377-19.557c-8.432,0.866-16.669,0.69-24.748-0.214
		c8.898,37.764,23.629,46.41,35.938,54.115c18.169,11.377,30.729,2.479,18.169-3.903c-20.48-10.417-28.092-28.848-24.664-24.878
		c3.458,3.969,12.588,6.504,20.63,8.563c8.04,2.059,12.383,3.885,14.637-1.556C349.607,427.434,344.5,425.943,327.776,420.287z"></path>
	<path class="st0" d="M475.16,301.061c-21.71,7.529-40.262,0.224-35.016,0.504c5.255,0.27,13.408-4.547,20.471-8.908
		c7.072-4.361,11.386-6.234,9.047-11.61c-2.348-5.396-6.96-2.739-22.65,5.357c-7.547,3.895-27.515,2.004-37.642-0.774
		c-5.218,6.672-1.65,14.358-7.911,19.549c33.365,19.8,49.82,15.196,63.899,11.684C486.164,311.665,488.475,296.449,475.16,301.061z"></path>
	<path class="st0" d="M511.414,156.603c-37-58.011-117.568-84.687-181.318-94.246c-31.344-4.715-63.667-1.38-94.619-7.864
		c-22.902-4.79-44.482-14.908-66.732-21.944C110.641,14.157,55.686,26.466,2.698,54.399c-2.553,1.36-3.093,2.814-2.45,4.146
		c0.037,1.127,0.755,2.329,2.524,3.522c26.537,17.843,37.484,51.423,44.78,81.025c8.19,33.189,10.798,67.84,12.112,101.914
		c1.379,35.937,2.758,70.468,10.93,105.763c8.367,36.049,21.402,71.689,39.124,104.234c6.308,11.6,18.122,36.086,35.044,32.882
		c6.689-1.267,8.702-6.587,11.152-12.225c4.687-10.789,9.244-21.597,14.638-32.071c14.312-27.766,37.736-56.538,72.276-52.756
		c28.828,3.168,57.684-2.086,83.373-15.774c27.43-14.619,49.261-36.534,63.004-64.467c15.066-30.636,6.736-65.204,20.909-95.411
		c15.68-33.385,59.184-49.924,93.342-51.629C506.075,163.423,514.238,161.037,511.414,156.603z M407.431,192.904
		c-22.94,24.132-19.595,53.063-24.244,83.428c-5.702,37.112-30.505,68.363-61.998,87.408c-14.126,8.553-30.095,13.734-46.308,16.343
		c-15.98,2.562-31.624-2.041-47.492-0.094c-28.222,3.513-48.795,22.185-63.834,45.227c-6.616,10.156-12.01,21.02-16.986,32.052
		c-2.05,4.556-3.979,9.168-5.926,13.772c-0.364,0.829-0.727,1.658-1.09,2.497c-5.814-5.992-10.1-14.992-13.809-21.579
		c-8.609-15.328-15.514-31.624-21.804-48.022c-13.631-35.462-22.725-72.789-26.088-110.627c-2.553-28.678-1.398-57.628-3.84-86.363
		C69.849,158.085,61.79,91.967,20.587,58.834c28.688-14.46,59.1-24.971,91.6-25.082c23.21-0.084,45.572,6.923,67.198,14.666
		c19.175,6.886,38.155,14.088,58.252,17.862c28.838,5.432,58.961,2.553,88.144,6.569c56.65,7.799,131.312,34.362,165.526,80.932
		C460.326,157.618,428.814,170.411,407.431,192.904z"></path>
	<path class="st0" d="M117.256,82.389c-10.426,0-18.886,8.451-18.886,18.887c0,10.426,8.46,18.877,18.886,18.877
		c10.436,0,18.886-8.451,18.886-18.877C136.142,90.84,127.692,82.389,117.256,82.389z"></path>
	<path class="st0" d="M224.761,328.753c23.489,16.035,72.388,14.562,101.896-7.715c29.499-22.279,48.321-97.229,28.586-122.47
		C351.722,299.086,253.897,330.998,224.761,328.753z"></path>
</g>
</svg>
